<?xml version="1.0" standalone="no"?>
<!DOCTYPE svg PUBLIC "-//W3C//DTD SVG 20010904//EN"
 "http://www.w3.org/TR/2001/REC-SVG-20010904/DTD/svg10.dtd">
<svg version="1.0" xmlns="http://www.w3.org/2000/svg"
 width="2048.000000pt" height="2048.000000pt" viewBox="0 0 2048.000000 2048.000000"
 preserveAspectRatio="xMidYMid meet">

<g transform="translate(0.000000,2048.000000) scale(0.100000,-0.100000)"
fill="#000000" stroke="none">
<path d="M7740 11433 c0 -1581 4 -2700 10 -2808 10 -179 26 -360 37 -402 12
-49 -18 -19 -68 70 -29 50 -136 225 -238 388 -103 163 -901 1438 -1776 2832
l-1590 2536 -712 1 -713 0 0 -3755 0 -3755 590 0 591 0 -4 2812 c-4 2712 -6
2897 -33 3101 -11 84 18 57 76 -73 29 -66 86 -175 126 -242 40 -68 853 -1354
1807 -2858 l1734 -2735 666 -3 667 -2 -2 3757 -3 3758 -582 3 -583 2 0 -2627z"/>
<path d="M10520 10295 l0 -3755 2055 0 2055 0 0 525 0 525 -1445 0 -1445 0 0
1115 0 1115 1255 0 1255 0 0 525 0 525 -1255 0 -1255 0 0 1065 0 1065 1365 0
1365 0 0 525 0 525 -1975 0 -1975 0 0 -3755z"/>
<path d="M15060 13525 l0 -525 1048 -2 1047 -3 3 -3227 2 -3228 605 0 605 0 2
3228 3 3227 1053 3 1052 2 0 525 0 525 -2710 0 -2710 0 0 -525z"/>
<path d="M618 7830 c-246 -45 -441 -186 -544 -395 -173 -349 -28 -756 331
-930 115 -55 211 -77 345 -76 129 0 230 25 338 81 153 79 248 176 323 325 104
210 88 471 -41 669 -94 143 -252 258 -420 306 -84 23 -257 34 -332 20z"/>
</g>
</svg>
