<?xml version="1.0" standalone="no"?>
<!DOCTYPE svg PUBLIC "-//W3C//DTD SVG 20010904//EN"
 "http://www.w3.org/TR/2001/REC-SVG-20010904/DTD/svg10.dtd">
<svg version="1.0" xmlns="http://www.w3.org/2000/svg"
 width="512.000000pt" height="512.000000pt" viewBox="0 0 512.000000 512.000000"
 preserveAspectRatio="xMidYMid meet">

<g transform="translate(0.000000,512.000000) scale(0.100000,-0.100000)"
fill="#000000" stroke="none">
<path d="M3052 5088 c2 -4 111 -82 242 -174 234 -163 241 -167 265 -152 15 8
152 84 306 169 l280 154 -50 2 c-134 6 -1045 7 -1043 1z"/>
<path d="M3993 4898 c-182 -101 -326 -185 -320 -187 35 -12 1383 -196 1385
-189 6 15 -66 158 -112 222 -79 111 -199 203 -345 265 -82 35 -210 71 -250 71
-15 0 -170 -79 -358 -182z"/>
<path d="M2687 4929 c-785 -101 -1851 -971 -2303 -1879 -313 -629 -253 -1102
151 -1191 85 -19 320 -17 423 4 324 65 680 261 1082 596 172 142 569 544 694
701 301 377 501 758 561 1071 21 107 21 285 1 362 -70 260 -282 378 -609 336z"/>
<path d="M3691 4631 c1 -10 1312 -1076 1323 -1076 13 0 51 143 77 294 26 151
31 384 10 508 -13 79 -14 81 -45 87 -25 4 -916 130 -1273 180 -51 7 -93 10
-92 7z"/>
<path d="M3372 4023 c-100 -324 -182 -592 -182 -597 0 -4 39 -5 88 -2 48 4
391 27 762 51 371 25 713 48 759 52 l84 8 -149 121 c-82 67 -378 309 -659 538
-280 229 -512 416 -515 416 -4 0 -88 -264 -188 -587z"/>
<path d="M4265 3385 c-335 -23 -701 -48 -813 -55 -162 -10 -201 -16 -190 -25
7 -7 265 -167 573 -355 308 -188 592 -362 631 -386 39 -24 73 -44 77 -44 21 0
232 386 323 590 52 118 114 283 114 305 0 20 4 20 -715 -30z"/>
<path d="M5021 3208 c-53 -139 -244 -493 -390 -724 l-33 -52 36 -243 c36 -252
53 -367 156 -1064 33 -225 60 -416 60 -424 0 -8 2 -12 5 -10 2 3 11 95 20 205
28 368 105 1375 140 1839 19 253 37 477 39 498 6 54 -6 45 -33 -25z"/>
<path d="M2755 2933 c-176 -163 -477 -443 -670 -621 -192 -178 -351 -327 -352
-331 -2 -3 313 -107 700 -231 386 -123 790 -253 897 -287 107 -35 200 -63 206
-63 7 0 -62 293 -177 748 -104 411 -208 822 -231 915 -23 92 -45 167 -48 167
-3 0 -149 -134 -325 -297z"/>
<path d="M3230 3180 c0 -5 20 -87 44 -182 78 -303 396 -1567 396 -1572 0 -19
28 8 126 122 206 239 380 463 558 721 59 85 105 159 103 165 -2 5 -59 45 -128
87 -322 199 -1092 669 -1095 669 -2 0 -4 -4 -4 -10z"/>
<path d="M4460 2227 c-150 -223 -466 -624 -653 -830 -78 -86 -80 -89 -61 -106
10 -10 242 -215 514 -456 272 -241 508 -450 524 -464 l28 -26 -6 40 c-9 60
-89 608 -140 955 -25 168 -66 451 -92 630 -26 179 -50 328 -53 332 -3 3 -31
-30 -61 -75z"/>
<path d="M50 2260 c-3 -16 -38 -1055 -36 -1057 1 -2 62 106 134 238 l132 241
-106 277 c-100 259 -122 313 -124 301z"/>
<path d="M1710 1895 c0 -3 122 -240 271 -527 149 -288 316 -610 371 -716 77
-149 104 -192 116 -187 58 22 373 228 527 344 202 153 570 478 556 492 -3 4
-316 107 -696 229 -727 234 -1032 332 -1102 355 -24 8 -43 12 -43 10z"/>
<path d="M1525 1879 c-16 -4 -281 -60 -588 -125 -507 -108 -558 -121 -553
-137 12 -48 641 -1505 647 -1499 3 4 42 129 87 277 45 149 162 540 262 869 99
330 180 605 178 611 -2 8 -13 9 -33 4z"/>
<path d="M1646 1829 c-3 -8 -62 -203 -132 -434 -69 -231 -191 -634 -269 -895
-79 -261 -143 -476 -141 -477 6 -7 279 42 401 71 178 44 304 84 480 153 159
63 395 178 395 193 0 11 -708 1380 -721 1394 -5 6 -10 4 -13 -5z"/>
<path d="M340 1491 c0 -20 -30 -385 -65 -791 l-33 -385 34 -42 c71 -87 199
-166 324 -198 77 -20 248 -36 306 -28 l42 5 -138 342 c-214 530 -450 1089
-465 1105 -3 2 -5 -1 -5 -8z"/>
<path d="M122 1214 c-109 -199 -112 -207 -112 -267 0 -76 22 -216 50 -315 20
-71 88 -228 95 -220 8 7 90 1008 84 1008 -3 0 -55 -93 -117 -206z"/>
<path d="M3515 1149 c-244 -224 -531 -449 -771 -605 -74 -48 -133 -89 -131
-90 2 -3 152 -15 1027 -84 925 -73 1040 -81 1066 -78 22 3 -52 72 -510 478
-295 261 -544 476 -554 477 -10 1 -64 -41 -127 -98z"/>
<path d="M2345 311 c-141 -73 -288 -137 -440 -192 -137 -49 -154 -58 -93 -53
44 5 579 40 1698 114 344 23 638 44 654 48 16 4 -203 25 -525 51 -305 23 -689
54 -854 67 -165 13 -306 24 -315 23 -8 0 -64 -26 -125 -58z"/>
</g>
</svg>
